<svg width="114" height="25" viewBox="0 0 114 25" fill="none" xmlns="http://www.w3.org/2000/svg">
<path d="M12.172 24.32C10.0173 24.32 8.06533 23.8187 6.316 22.816C4.56667 21.792 3.18 20.4053 2.156 18.656C1.15333 16.8853 0.652 14.9227 0.652 12.768C0.652 10.6347 1.15333 8.69333 2.156 6.944C3.18 5.17333 4.57733 3.78666 6.348 2.784C8.14 1.78133 10.124 1.28 12.3 1.28C13.8787 1.28 15.34 1.52533 16.684 2.016C18.0493 2.50667 19.212 3.18933 20.172 4.064C21.132 4.91733 21.8147 5.888 22.22 6.976L18.22 8.768C17.772 7.744 16.9933 6.92267 15.884 6.304C14.7747 5.664 13.548 5.344 12.204 5.344C10.8173 5.344 9.56933 5.664 8.46 6.304C7.372 6.944 6.51867 7.82933 5.9 8.96C5.28133 10.0907 4.972 11.36 4.972 12.768C4.972 14.1973 5.292 15.488 5.932 16.64C6.572 17.7707 7.45733 18.656 8.588 19.296C9.74 19.936 11.02 20.256 12.428 20.256C13.644 20.256 14.7533 20.0107 15.756 19.52C16.7587 19.0293 17.5587 18.3467 18.156 17.472C18.7747 16.5973 19.1267 15.6053 19.212 14.496C18.9133 14.688 18.4867 14.816 17.932 14.88C17.3987 14.944 16.7907 14.976 16.108 14.976H12.204V11.488H23.02C23.1053 12.0853 23.148 12.7787 23.148 13.568C23.148 15.6587 22.6893 17.5253 21.772 19.168C20.876 20.7893 19.596 22.0587 17.932 22.976C16.268 23.872 14.348 24.32 12.172 24.32ZM26.0465 6.784H29.6305V9.824C29.9718 9.12 30.3985 8.52267 30.9105 8.032C31.4225 7.52 31.9985 7.12533 32.6385 6.848C33.2785 6.57067 33.9718 6.432 34.7185 6.432C36.1052 6.432 37.2145 6.90133 38.0465 7.84C38.8785 8.77867 39.3798 10.1653 39.5505 12L35.5825 12.672C35.5185 11.8827 35.2838 11.296 34.8785 10.912C34.4732 10.528 33.9718 10.336 33.3745 10.336C32.7772 10.336 32.2225 10.56 31.7105 11.008C31.2198 11.4347 30.8145 12.064 30.4945 12.896C30.1958 13.728 30.0465 14.72 30.0465 15.872V24H26.0465V6.784ZM52.076 18.976L51.628 18.56V13.248C51.628 12.672 51.4787 12.128 51.18 11.616C50.8813 11.104 50.4547 10.7093 49.9 10.432C49.3667 10.1333 48.748 9.984 48.044 9.984C47.0413 9.984 46.2307 10.24 45.612 10.752C45.0147 11.264 44.7053 11.9573 44.684 12.832L40.62 12.352C40.748 11.1787 41.132 10.144 41.772 9.248C42.4333 8.352 43.2973 7.65867 44.364 7.168C45.452 6.67733 46.6787 6.432 48.044 6.432C49.5587 6.432 50.9133 6.74133 52.108 7.36C53.324 7.95733 54.2733 8.8 54.956 9.888C55.6387 10.976 55.98 12.2027 55.98 13.568V19.136C55.98 19.4987 55.98 19.8507 55.98 20.192C56.0227 21.0667 56.076 21.824 56.14 22.464C56.2253 23.104 56.3427 23.616 56.492 24H52.076V18.976ZM46.828 24.352C45.0573 24.352 43.6387 23.8827 42.572 22.944C41.5267 22.0053 41.004 20.7787 41.004 19.264C41.004 17.9413 41.3347 16.896 41.996 16.128C42.6573 15.36 43.5 14.7947 44.524 14.432C45.548 14.0693 46.828 13.7493 48.364 13.472L48.908 13.376C49.3773 13.2907 49.8787 13.1947 50.412 13.088C50.9453 12.96 51.4253 12.8213 51.852 12.672V15.648C51.6173 15.9467 51.2653 16.1813 50.796 16.352C50.3267 16.5013 49.676 16.64 48.844 16.768L48.364 16.864C47.6813 16.992 47.116 17.1413 46.668 17.312C46.22 17.4613 45.868 17.6853 45.612 17.984C45.3773 18.2613 45.26 18.6027 45.26 19.008C45.26 19.6053 45.4627 20.0747 45.868 20.416C46.2733 20.736 46.8387 20.896 47.564 20.896C48.3533 20.896 49.0467 20.6827 49.644 20.256C50.2627 19.808 50.7427 19.2 51.084 18.432C51.4467 17.6427 51.628 16.7467 51.628 15.744L53.548 16.448C53.5053 18.1547 53.2067 19.6053 52.652 20.8C52.0973 21.9947 51.3187 22.8907 50.316 23.488C49.3347 24.064 48.172 24.352 46.828 24.352ZM67.2205 24.352C65.6632 24.352 64.2445 23.9573 62.9645 23.168C61.6845 22.3573 60.6712 21.2693 59.9245 19.904C59.1992 18.5387 58.8365 17.0347 58.8365 15.392C58.8365 13.728 59.1992 12.2133 59.9245 10.848C60.6712 9.48267 61.6845 8.40533 62.9645 7.616C64.2445 6.82667 65.6632 6.432 67.2205 6.432C68.3085 6.432 69.3005 6.60267 70.1965 6.944C71.1138 7.264 71.9138 7.75467 72.5965 8.416C73.2792 9.07733 73.8125 9.86667 74.1965 10.784V20C73.5992 21.3867 72.6925 22.464 71.4765 23.232C70.2818 23.9787 68.8632 24.352 67.2205 24.352ZM67.9245 20.544C68.8845 20.544 69.7485 20.32 70.5165 19.872C71.2845 19.424 71.8818 18.816 72.3085 18.048C72.7565 17.2587 72.9805 16.3733 72.9805 15.392C72.9805 14.4107 72.7565 13.5253 72.3085 12.736C71.8818 11.9467 71.2845 11.3387 70.5165 10.912C69.7485 10.464 68.8845 10.24 67.9245 10.24C66.9858 10.24 66.1325 10.4747 65.3645 10.944C64.5965 11.392 63.9885 12.0107 63.5405 12.8C63.0925 13.568 62.8685 14.432 62.8685 15.392C62.8685 16.3307 63.0925 17.1947 63.5405 17.984C63.9885 18.7733 64.5965 19.4027 65.3645 19.872C66.1325 20.32 66.9858 20.544 67.9245 20.544ZM73.4285 18.976L72.9805 18.496V0.255999H76.9805V19.2C76.9805 20.3093 77.0125 21.28 77.0765 22.112C77.1405 22.944 77.2578 23.5733 77.4285 24H73.4285V18.976ZM89.0488 24.352C87.2994 24.352 85.7314 23.9787 84.3448 23.232C82.9581 22.464 81.8808 21.408 81.1128 20.064C80.3448 18.6987 79.9608 17.152 79.9608 15.424C79.9608 13.7173 80.3448 12.1813 81.1128 10.816C81.9021 9.45067 82.9581 8.384 84.2808 7.616C85.6248 6.82667 87.1074 6.432 88.7288 6.432C90.2861 6.432 91.7048 6.79467 92.9848 7.52C94.2648 8.224 95.2674 9.20533 95.9928 10.464C96.7181 11.7013 97.0808 13.088 97.0808 14.624C97.0808 15.2853 97.0381 15.8827 96.9528 16.416H82.0728V13.12H92.7928C92.7714 12.5013 92.5794 11.9573 92.2168 11.488C91.8541 10.9973 91.3634 10.624 90.7448 10.368C90.1261 10.0907 89.4328 9.952 88.6648 9.952C87.6834 9.952 86.8301 10.1653 86.1048 10.592C85.3794 11.0187 84.8248 11.6267 84.4408 12.416C84.0568 13.2053 83.8648 14.1333 83.8648 15.2C83.8648 16.2667 84.0781 17.216 84.5048 18.048C84.9314 18.88 85.5181 19.5307 86.2648 20C87.0328 20.448 87.9181 20.672 88.9208 20.672C90.0301 20.672 90.9474 20.4373 91.6728 19.968C92.3981 19.4987 92.8461 18.8587 93.0168 18.048L97.1768 18.464C96.7501 20.32 95.8328 21.7707 94.4248 22.816C93.0168 23.84 91.2248 24.352 89.0488 24.352ZM100.109 6.784H103.693V9.824C104.034 9.12 104.461 8.52267 104.973 8.032C105.485 7.52 106.061 7.12533 106.701 6.848C107.341 6.57067 108.034 6.432 108.781 6.432C110.168 6.432 111.277 6.90133 112.109 7.84C112.941 8.77867 113.442 10.1653 113.613 12L109.645 12.672C109.581 11.8827 109.346 11.296 108.941 10.912C108.536 10.528 108.034 10.336 107.437 10.336C106.84 10.336 106.285 10.56 105.773 11.008C105.282 11.4347 104.877 12.064 104.557 12.896C104.258 13.728 104.109 14.72 104.109 15.872V24H100.109V6.784Z" fill="#7B7AFF"/>
</svg>
